External Loads File
version=1
nRows=78
nColumns=13
Range=5.000000e-03-10 seconds
endheader
time 	forceRightX 	forceRightY 	forceRightZ 	pointRightX 	pointRightY 	pointRightZ 	forceLeftX 	forceLeftY 	forceLeftZ 	pointLeftX 	pointLeftY 	pointLeftZ 		
5.005000 226.793754 216.456391 -0.000000 0.214342 0.166747 -0.147059 -8.630401 157.275534 -0.000000 0.354701 0.486511 -0.385343
5.010000 170.943191 156.534654 -0.000000 0.207065 0.171929 -0.147349 -8.071776 191.076481 -0.000000 0.361407 0.481299 -0.385964
5.015000 137.589149 79.139294 -0.000000 0.199827 0.177677 -0.147587 22.539011 227.179610 -0.000000 0.367694 0.475371 -0.386625
5.020000 91.343835 34.051988 -0.000000 0.192691 0.183917 -0.147860 16.633956 267.777527 -0.000000 0.374183 0.468619 -0.387612
5.025000 53.890668 -12.832709 -0.000000 0.185627 0.190710 -0.148040 39.452962 308.244468 -0.000000 0.380107 0.461176 -0.388088
5.030000 23.264560 -44.978231 -0.000000 0.178786 0.198038 -0.148226 24.081590 354.167436 -0.000000 0.385764 0.453143 -0.388440
5.035000 -8.227894 -72.228691 -0.000000 0.172199 0.206061 -0.148437 57.326182 395.966391 -0.000000 0.391121 0.444605 -0.388525
5.040000 -24.262144 -92.953529 -0.000000 0.166073 0.214403 -0.148597 33.057914 443.903940 -0.000000 0.396275 0.435551 -0.388540
5.045000 -45.893587 -104.467240 -0.000000 0.159865 0.223112 -0.149142 61.613623 485.306586 -0.000000 0.400968 0.425949 -0.388414
5.050000 -49.163495 -115.647898 -0.000000 0.154834 0.232376 -0.149312 27.434037 530.871834 -0.000000 0.405235 0.415793 -0.388312
5.055000 -63.519083 -114.353162 -0.000000 0.150268 0.241900 -0.149417 67.042578 567.837186 -0.000000 0.409339 0.405645 -0.388064
5.060000 -57.014625 -116.894675 -0.000000 0.146461 0.251693 -0.149575 24.990960 609.068144 -0.000000 0.412664 0.395172 -0.387922
5.065000 -61.090660 -108.157396 -0.000000 0.143079 0.261642 -0.149778 59.070415 642.287867 -0.000000 0.415831 0.384520 -0.387742
5.070000 -48.293512 -103.633558 -0.000000 0.140383 0.271744 -0.149958 12.472956 678.110067 -0.000000 0.418379 0.373777 -0.387613
5.075000 -44.779403 -91.220157 -0.000000 0.138286 0.282164 -0.150157 43.283718 708.222530 -0.000000 0.420273 0.362620 -0.387418
5.080000 -28.908438 -82.447838 -0.000000 0.136819 0.292733 -0.150421 -9.179246 739.197241 -0.000000 0.421785 0.351025 -0.387154
5.085000 -23.448376 -69.000329 -0.000000 0.136004 0.303404 -0.150570 42.393288 766.423772 -0.000000 0.422727 0.339838 -0.386972
5.090000 -8.087771 -58.807475 -0.000000 0.135850 0.314187 -0.150765 -11.890994 794.690388 -0.000000 0.423234 0.328578 -0.387168
5.095000 -0.888515 -47.943040 -0.000000 0.136238 0.325100 -0.150980 36.688177 820.260955 -0.000000 0.422689 0.317279 -0.386846
5.100000 11.373309 -37.962050 -0.000000 0.137308 0.335834 -0.151142 -19.480658 846.621938 -0.000000 0.421593 0.306583 -0.386177
5.105000 16.963377 -30.529599 -0.000000 0.139183 0.346686 -0.151258 40.026975 871.521499 -0.000000 0.420111 0.295553 -0.386027
5.110000 24.942192 -22.132125 -0.000000 0.141331 0.357525 -0.151430 -17.907585 898.044360 -0.000000 0.417930 0.284154 -0.385849
5.115000 28.017745 -18.188467 -0.000000 0.144098 0.368279 -0.151444 36.019557 923.805260 -0.000000 0.415151 0.273476 -0.385661
5.120000 31.075379 -12.521698 -0.000000 0.147470 0.379081 -0.151534 -21.474288 951.243967 -0.000000 0.412286 0.262864 -0.385889
5.125000 30.116723 -12.419346 -0.000000 0.151603 0.389710 -0.151635 42.169885 978.254016 -0.000000 0.408842 0.252480 -0.386034
5.130000 28.339598 -10.405971 -0.000000 0.156242 0.400167 -0.151823 -12.349681 1007.194402 -0.000000 0.404303 0.242280 -0.385872
5.135000 22.679634 -13.781458 -0.000000 0.161543 0.410460 -0.151907 77.682379 1032.328078 -0.000000 0.398591 0.232495 -0.385663
5.140000 16.794062 -15.217296 -0.000000 0.167294 0.420418 -0.152144 28.464015 1061.959400 -0.000000 0.392867 0.223171 -0.385413
5.145000 9.589289 -18.447452 -0.000000 0.173480 0.429986 -0.152455 -19.760196 1087.585369 -0.000000 0.386612 0.214315 -0.385177
5.150000 -1.153183 -23.244403 -0.000000 0.180206 0.439206 -0.152913 71.657150 1108.425806 -0.000000 0.379775 0.205932 -0.384952
5.155000 -9.623628 -28.162858 -0.000000 0.187368 0.448250 -0.153320 27.803955 1130.116459 -0.000000 0.372443 0.198023 -0.384680
5.160000 -21.482086 -31.657488 -0.000000 0.195021 0.456481 -0.153756 120.259421 1139.784067 -0.000000 0.364709 0.190460 -0.384403
5.165000 -29.223549 -37.237955 -0.000000 0.203093 0.463995 -0.154193 79.488343 1154.268810 -0.000000 0.356552 0.184059 -0.384249
5.170000 -41.396090 -38.059791 -0.000000 0.211553 0.470952 -0.154612 197.311506 1145.785255 -0.000000 0.347964 0.177203 -0.384232
5.175000 -47.560236 -43.575833 -0.000000 0.221267 0.477269 -0.154275 159.656318 1151.744251 -0.000000 0.339140 0.171480 -0.384149
5.180000 -58.076874 -42.294051 -0.000000 0.229702 0.483135 -0.155277 262.838324 1126.938843 -0.000000 0.330042 0.166395 -0.384080
5.185000 -62.209257 -47.086483 -0.000000 0.239309 0.487640 -0.155541 221.981871 1124.246714 -0.000000 0.320736 0.161969 -0.384020
5.190000 -70.799423 -42.964689 -0.000000 0.248734 0.492479 -0.155864 312.308631 1085.105311 -0.000000 0.311263 0.158224 -0.383894
5.195000 -73.043311 -45.418516 -0.000000 0.258412 0.496085 -0.156283 268.241021 1073.798531 -0.000000 0.301640 0.155116 -0.383822
5.200000 -79.461680 -36.387162 -0.000000 0.268509 0.499132 -0.156322 352.916209 1019.345337 -0.000000 0.291943 0.152703 -0.383800
5.205000 -79.754265 -34.375182 -0.000000 0.278399 0.501533 -0.156642 304.954707 999.072274 -0.000000 0.282189 0.151029 -0.383755
5.210000 -82.283188 -19.177529 -0.000000 0.288090 0.503175 -0.156753 376.811643 930.589216 -0.000000 0.272444 0.150010 -0.383735
5.215000 -80.155396 -10.983545 -0.000000 0.297567 0.504154 -0.156968 325.779275 899.302827 -0.000000 0.262688 0.149727 -0.383669
5.220000 -76.449822 11.790034 -0.000000 0.306946 0.504399 -0.157065 397.021491 809.628789 -0.000000 0.252992 0.150195 -0.383667
5.225000 -71.269819 25.957962 -0.000000 0.316093 0.504007 -0.157120 341.216482 767.033403 -0.000000 0.243407 0.151367 -0.383689
5.230000 -59.746882 51.265074 -0.000000 0.324882 0.502711 -0.157094 377.653907 670.933241 -0.000000 0.233976 0.153378 -0.383735
5.235000 -52.303731 70.150846 -0.000000 0.333480 0.500689 -0.156887 319.605627 615.538473 -0.000000 0.224749 0.156142 -0.383691
5.240000 -33.647904 96.423567 -0.000000 0.341782 0.497931 -0.156595 333.689275 512.560827 -0.000000 0.215844 0.159855 -0.383553
5.245000 -25.746820 118.780420 -0.000000 0.349717 0.494367 -0.156048 275.709218 447.662075 -0.000000 0.207351 0.164113 -0.383350
5.250000 -1.877757 144.664777 -0.000000 0.357200 0.489987 -0.155573 268.381441 346.352888 -0.000000 0.199169 0.169036 -0.383113
5.255000 3.781671 170.878301 -0.000000 0.364059 0.484894 -0.154924 211.665423 280.411638 -0.000000 0.191431 0.174565 -0.382843
5.260000 30.349479 197.758604 -0.000000 0.370874 0.479019 -0.154393 186.266766 192.515508 -0.000000 0.184042 0.180851 -0.382559
5.265000 30.555517 230.141385 -0.000000 0.377017 0.472330 -0.153874 134.169481 135.118463 -0.000000 0.177021 0.187522 -0.382288
5.270000 63.290928 259.592228 -0.000000 0.382745 0.464931 -0.153320 100.980300 67.513888 -0.000000 0.170335 0.194541 -0.381987
5.275000 58.190837 299.397725 -0.000000 0.387960 0.456961 -0.152721 59.052150 24.789296 -0.000000 0.163994 0.202054 -0.381751
5.280000 87.406035 333.814077 -0.000000 0.392965 0.448354 -0.151958 24.678942 -15.075856 -0.000000 0.158103 0.209837 -0.381562
5.285000 73.579304 379.485065 -0.000000 0.397544 0.439130 -0.151640 -2.549016 -42.006328 -0.000000 0.152571 0.218079 -0.381387
5.290000 103.236440 415.768258 -0.000000 0.401895 0.429698 -0.151343 -28.220888 -59.936254 -0.000000 0.146681 0.226343 -0.380413
5.295000 78.937259 462.809178 -0.000000 0.406334 0.419827 -0.151587 -40.090394 -73.464904 -0.000000 0.142087 0.235236 -0.380503
5.300000 117.466739 495.121191 -0.000000 0.409762 0.409532 -0.151318 -55.729526 -74.953069 -0.000000 0.137711 0.244436 -0.380345
5.305000 82.017472 539.562567 -0.000000 0.413193 0.398929 -0.151238 -54.800208 -79.214349 -0.000000 0.133852 0.253965 -0.380286
5.310000 110.780911 569.075719 -0.000000 0.416350 0.388260 -0.151063 -58.629125 -73.233255 -0.000000 0.130551 0.263606 -0.380344
5.315000 66.289946 607.164642 -0.000000 0.418967 0.377520 -0.150977 -49.401485 -71.971968 -0.000000 0.127837 0.273570 -0.380495
5.320000 92.665619 632.242041 -0.000000 0.421059 0.366658 -0.151043 -45.849468 -63.300785 -0.000000 0.125792 0.283712 -0.380630
5.325000 42.424031 663.468042 -0.000000 0.422535 0.355659 -0.150993 -32.803358 -59.209955 -0.000000 0.124287 0.294004 -0.380671
5.330000 83.249913 683.672990 -0.000000 0.423759 0.344397 -0.151544 -26.625336 -50.471615 -0.000000 0.123440 0.305298 -0.380822
5.335000 30.231455 710.460830 -0.000000 0.423949 0.333216 -0.150938 -12.901303 -45.655916 -0.000000 0.123270 0.315023 -0.380921
5.340000 64.764187 729.369748 -0.000000 0.424362 0.322089 -0.151572 -4.918385 -39.715136 -0.000000 0.123790 0.325445 -0.381038
5.345000 12.484072 752.180108 -0.000000 0.423786 0.310962 -0.151900 7.278936 -35.053937 -0.000000 0.125036 0.336455 -0.381131
5.350000 52.782189 769.509663 -0.000000 0.422576 0.299927 -0.152089 14.206430 -31.961669 -0.000000 0.126719 0.347359 -0.381191
5.355000 3.590218 789.412259 -0.000000 0.420738 0.289010 -0.151150 23.674489 -27.927765 -0.000000 0.129207 0.357537 -0.381305
5.360000 50.552856 805.105051 -0.000000 0.418664 0.278284 -0.152001 28.325885 -27.380639 -0.000000 0.132261 0.367775 -0.381420
5.365000 5.531313 823.165049 -0.000000 0.415838 0.267656 -0.151941 34.609856 -24.348415 -0.000000 0.135916 0.377970 -0.381485
5.370000 60.980750 836.627019 -0.000000 0.412513 0.257421 -0.151795 36.228811 -26.310422 -0.000000 0.140203 0.388005 -0.381615
5.375000 18.695640 853.297475 -0.000000 0.408475 0.247450 -0.151403 39.186865 -25.032369 -0.000000 0.145018 0.397856 -0.381694
5.380000 95.859638 861.540731 -0.000000 0.404158 0.237891 -0.151393 36.679262 -30.155823 -0.000000 0.150401 0.407358 -0.381880
5.385000 54.734301 876.830802 -0.000000 0.399362 0.228631 -0.151464 36.415083 -31.249109 -0.000000 0.156364 0.416677 -0.381912
5.390000 112.222525 881.026523 -0.000000 0.394147 0.219772 -0.151546 30.872693 -37.408952 -0.000000 0.162742 0.425606 -0.382032
